<svg enable-background="new 0 0 768 1024" viewBox="0 0 768 1024" xmlns="http://www.w3.org/2000/svg"><path d="m267.1 755.9c-12.7 3.3-25 6.5-37.4 9.5-3.8.9-7.9 1.2-11.8 1.4-8.2.3-16.4.3-24.5.6-4.4.2-8.8 1.2-13.3 1.4-5.1.2-10.3.1-15.5.1-.3-.3-.5-.6-.8-.9 2-2 3.6-4.8 6-6 9.9-4.8 19.9-9.6 30.3-13.3 14.9-5.4 29-12.5 43-19.6 7.8-4 15.9-7.6 23.4-12.2 17.8-11 34.1-23.7 46.9-40.7 7.1-9.4 5.6-18.1 1.5-27.5-1-2.4-2.5-4.5-3.9-7.1-2.6 2.3-5.2 4.3-7.4 6.5-8.3 8.4-17.8 6.9-27.5 3.3-8.8-3.2-11.3-10.4-12.4-18.9-1.7-13.5 3.2-25.4 8.3-37.3 3-7 6.3-14.2 11-20 4.8-6 12-9.3 20.2-6.8 18.1 5.3 28.6 18.1 33.3 35.7 4.3 16 1.7 31.8-2.5 47.4-1.4 5.1-2 10.4-3.3 15.5-.9 3.4-2.4 6.6-3.6 9.9-.2.4-.7.9-.6 1.3.3 5-3.1 8.5-4.9 12.6-3.6 8.3-7.3 16.7-12 24.3s-10.4 14.7-16.3 21.4c-3.9 4.4-9.1 7.6-13.3 11.7-1.8 1.8-3.6 4.5-3.9 7-.8 7.2-1.5 14.6-1 21.8.7 10.2 3.4 20.4 3.7 30.6.4 13.3 7 24.4 11.4 36.3 2 5.3 5.9 10 9.1 14.8 2.1 3.2 4 6.5 6.5 9.3 3.9 4.3 8.1 8.2 13 12.9.3-4.5.6-8.4 1-12.2.4-3.7.3-7.5 1.4-11 2.9-9 5.4-18.3 9.9-26.4 4.8-8.7 11.2-16.7 18-24 3-3.2 8.5-4.8 13.1-5.5 6.4-1 9.8 4.1 13 8.8 4 5.8 7.4 12.5 12.6 16.8 10.6 8.8 22.9 14.5 37.4 12 5.6-.9 11.1-2.1 16.7-3.1 2.1-.4 2.5-1.4 2.2-3.4-2.1-18-9.3-33.9-19.8-48.4-13.1-18.1-26.1-36.2-39.3-54.2-7.8-10.6-16.5-20.6-23.8-31.5-9.4-14-16.5-29.3-17.3-46.6-.3-6.2.4-12.7 1.9-18.8 3.2-13.5 6.7-27 11-40.1 4-12.3 9.4-24.3 13.9-36.4 2.5-6.7 4.7-13.5 6.9-20.3 2.6-7.9 4.9-15.9 7.6-23.7 3.1-8.9 6.3-17.7 9.7-26.5 1.1-3 2.5-6 4.3-8.6 3.8-5.3 4.7-11.6 7-17.4 2.9-7 6.1-13.9 9.3-20.8.4-.8 1.6-1.1 2.4-1.7.1 1 .4 2 .2 2.9-2.4 8.5-3.4 17.1-2.9 26 .5 8.7 1.6 17.4 5.2 25.3 5.3 11.7 11.2 23.2 17.4 34.5 4.3 7.9 9.5 15.4 14.5 22.9 6.1 9.3 12.8 18.3 18.6 27.8 6.1 10 12.1 20.2 17.2 30.8 3.9 8.2 5.1 17.2 5.5 26.4 1.1 20.6-3.4 40.2-8.8 59.8-4.1 15.1-8.8 30-12.4 45.2-4.3 18.6-7.7 37.5-11.5 56.2-2 9.7-4.1 19.4-6.3 29.1-.3 1.5-1.4 2.8-2 4.2-.4.9-.7 1.9-1.1 2.9l.9.9c3.8-2.4 7.6-4.7 11.3-7.2 16.9-11.8 30.4-26.9 42.4-43.5 4.3-6 8.4-12.3 11.9-18.9 2-3.7 3-8.2 3.8-12.4 4-20.7 7.5-41.6 5.8-62.7-1.1-14.2-3.7-28.2-7.3-42.1-7.7-29.8-19.3-57.9-32.7-85.5-1.9-4-3.1-8.3-5.1-12.3-1.9-3.8-4.7-7.2-6.6-11-9.2-17.7-18.6-35.4-27.4-53.4-5.8-11.9-10.2-24.5-15.9-36.5-5.6-11.9-9.6-24.3-12.7-36.8-3-12-4.9-24.3-6-36.6-1.1-12.9.5-25.6 7.2-37.4 4.8-8.4 7.6-18 12.2-26.6 2.4-4.4 2.3-8.1 1.3-12.5-4.1-18.9-5-38-2-57.1 1.3-8.3 4.2-16.5 7.2-24.4 3.7-9.7 8.3-19.1 12.3-28.7.6-1.5.2-3.6-.1-5.4-1.4-9.6-3.6-19.1-4.2-28.7-.9-15 .2-30 5.2-44.5 2.5-7.2 3.6-15 8.2-21.4 3.8-5.2 7.6-10.4 11.4-15.6 4.2-5.8 8.5-11.6 12.8-17.3.7-.9 1.7-1.6 2.8-2.6 2.4 2.7 1.2 5.2.6 7.6-2 7.6-4.6 15-6 22.7-1.8 10.2-2 20.4-.3 30.8 1.6 9.4 2.3 19 3.6 28.4 3.2 22.1 10.8 42.8 19.3 63.2 9.6 23.1 19.8 45.8 29.6 68.8 10.7 25.1 21.3 50.3 31.9 75.5 5.7 13.5 11.9 26.8 16.9 40.5 4.1 11.4 7.3 23.2 10 35 3.2 13.9 2.9 28-.9 41.7-3.1 10.9-6.6 21.9-12.9 31.6-1.9 2.9-4.1 5.7-5.4 8.9-1 2.3-1.7 5.4-1.1 7.7 3.1 10.3 6.8 20.5 10.2 30.7s7.5 20.3 10 30.8c2.8 11.7 4.3 23.7 6.1 35.5 1.1 7.2 2 14.5 2.6 21.8.7 8.6 1.4 17.3 1.2 26-.2 10.7-.8 21.5-2.3 32.1-2 15.2-4.6 30.3-7.6 45.3-2.6 12.9-5.7 25.6-9.5 38.2-3.2 10.5-7.4 20.7-11.5 30.9-3.4 8.5-7.1 16.8-11 25.1-3.4 7.3-7.2 14.4-10.5 21.7-4.9 10.7-11.8 20.3-18.3 30.1-7.5 11.2-16.8 20.7-25.9 30.6-3.8 4.2-7.3 8.7-11.1 12.7-1.8 1.9-4.3 3.2-6.5 4.7-11.7 8.3-22.8 17.6-35.3 24.6-12.1 6.7-25 12.7-39.5 13.4-5.9.3-11.6 2.5-17.5 3.3-8.2 1.2-16.4.8-24.7-.6-20.1-3.5-37.3-12.8-52.8-25.5-10-8.2-18.3-18.1-25.8-28.8-15-22.2-24.8-46.7-29.8-73.2-3.1-16.3-3.5-32.8-1.5-49.3 1.4-12.2 3-24.4 4.5-36.6.1-.6.1-1.2.1-1.7zm174.6-429.9c-.1 3.4-.7 6.6-.2 9.5 3 15.3 5.4 30.9 9.7 45.8 5.4 19 13.1 37.2 22 54.9 10.1 20.1 20.5 40 30.4 60.2 8 16.3 15.9 32.6 23.1 49.2 3.9 9.1 6.1 18.9 9.5 28.2 7.8 21.3 13 43.3 17 65.5 2.6 14.3 4.2 28.7 2.9 43.3-1.3 14.8-2.5 29.7-4.4 44.4-2.2 16.6-6.7 32.6-12.8 48.1-4.2 10.8-9.5 21-16.1 30.5-7.3 10.4-14 21.1-21.8 31.1-10.4 13.4-21.8 26.1-35 37-8.3 6.8-16.4 13.9-26.7 17.4-6.1 2.1-12.7 3.2-19.2 4-16.9 2.1-30.9-4.6-43-15.6-5-4.5-8.5-10.6-12.8-15.9-7.4-9-10.5-10.3-19.7-4.1-9 6.2-15.5 14.9-19.3 25.3-.5 1.3.3 3.9 1.3 4.8 8.9 7.4 18.5 13.6 29.8 16.4 12.8 3.2 25.8 5.7 39.1 3.3 12.8-2.3 25.8-4.1 38.4-7.5 12.7-3.5 24-10.4 34.8-18.1 13.9-9.9 27.3-20.2 39.2-32.5 15.2-15.7 26.3-34.2 36.6-53.2 4.5-8.2 8.7-16.7 11.7-25.6 4.3-12.7 7.3-25.8 10.8-38.7 3.5-12.8 6.7-25.8 7-39.1.1-7.9-.5-15.9-1.3-23.7-1.4-14.1-1.9-28.4-5-42.1-4.6-20.2-9.9-40.4-17-59.8-8.8-24.1-19.1-47.7-29.8-71.1-11.5-25.2-24.2-49.8-36.6-74.7-12.3-24.7-24-49.6-34-75.3-2.7-7.1-5.6-14.3-8.6-21.9zm17-119.6c-.3.5-.5.7-.5.9-.1.7-.1 1.5-.2 2.2-1.8 20.4 1.1 40.4 7.2 59.6 7.3 23 15.3 46 25.3 68 14.5 31.9 31.2 62.9 46.8 94.4 7.9 15.9 15.4 32 23 48 1.9 4.1 3.7 8.2 5.6 12.3.2-11.5-.5-22.6-3.3-33.6-6.2-24-16.5-46.6-26.1-69.3-10-23.7-20.1-47.3-30.3-70.9-6.1-14.2-12.3-28.2-18.4-42.4-5.6-13.2-10.8-26.7-16.7-39.8-4.2-9.6-5.2-20.6-12.4-29.4zm-63.9 310c-.3 0-.6-.1-.9-.1-1.3 2.7-2.6 5.5-4 8.2-3.3 6.3-4.5 12.5-2.8 19.7 3.1 12.7 10.2 23.4 16.9 34.2 5.9 9.5 12.6 18.5 18.7 27.8 7.2 11 14.6 21.9 21.1 33.3 7.1 12.3 13.5 25.1 19.9 37.9 2.6 5.3 4.4 11 6.5 16.6 4.1-9.2 2.7-18.9.9-27.8-1.9-9.1-6.2-18.2-11.1-26.2-13.1-21.5-27.5-42.3-40.7-63.7-9.3-15.1-18.7-30.3-22.4-48-.8-4-1.4-8-2.1-11.9zm59.7 243.9c.1-1.6.2-2.1.2-2.6-.1-.9-.2-1.7-.3-2.6-.9-11-4.7-21.2-9.8-30.7-7.2-13.4-15-26.6-23.2-39.5-8.8-13.9-18.3-27.2-27.3-40.9-6.7-10.2-13.4-20.3-19.2-31-3.7-6.9-5.7-14.6-8.8-22.7-1 4.8-2.5 9.2-2.6 13.6-.3 12.8 4.2 24.5 10.4 35.3 5.7 9.7 12.4 18.8 19.1 27.9 11.4 15.5 23.3 30.6 34.5 46.3 6.7 9.4 12.3 19.5 18.1 29.5 3.2 5.3 5.7 11 8.9 17.4z"/><path d="m384.7 453.8c-3.5-1.2-6.4-1.2-9.3-3.7-10.4-9.2-21.4-17.6-32.4-26.1-6.9-5.4-7.2-5.1-1.4-11.6 6.6-7.4 12.4-15.4 18.6-23.1 3.1-3.7 6.5-7.2 9.6-10.9 1.8-2.2 3.6-1.7 5.4-.2 11.6 9.3 23.2 18.6 34.8 28 .3.2.6.5.9.7 5.2 3.8 5.9 7 2 12.3-3.7 4.9-8 9.4-11.8 14.2-4.7 6-9.3 12.2-13.9 18.3-.8.8-1.8 1.5-2.5 2.1z"/><path d="m403.6 153.2c5.4 5 10.6 9.6 15.6 14.4 6.7 6.4 13.4 12.8 20.1 19.3 3.7 3.6 3.3 8.8.3 12.4-8 9.6-16.2 19-24.4 28.4-3.7 4.3-9 4.4-13.2.4-7.2-7-14.4-14-21.6-20.9-2.7-2.6-5.4-5.1-8.4-7.3-2.4-1.8-2.9-3.7-1.3-6 1.8-2.8 3.9-5.4 6-8.1 6.2-7.8 12.4-15.6 18.7-23.4 2.2-3.1 5.1-5.9 8.2-9.2z"/><path d="m395.3 345.1c-3.7-2.8-8.1-2.2-11.6-5.7-8.3-8.3-17.5-15.6-26.3-23.4-1.4-1.2-2.8-2.5-3.8-4-.5-.8-.5-2.5.1-3.3 2.5-3.6 5-7 7.8-10.3 7.3-8.6 14.7-17.1 22.2-25.5 4.3-4.8 4.3-4.7 8.8-.7 10.2 9 20.5 18 30.7 27 1.9 1.7 2.5 3.4 2.6 6.5.1 5-3.1 7-5.4 9.9-7 9-14.1 17.9-21.3 26.7-.9 1.2-2.4 1.8-3.8 2.8z"/><path d="m333.6 742.6c1.5-2.8 3.2-5.5 4.4-8.4 1.6-3.8 4.2-6.4 8.1-7.6.8-.3 2.7.1 2.8.6 1.1 3.5 3.6 6.9 1.6 10.8-1.6 2.9-3.4 5.7-4.8 8.8-2 4.5-3.5 9.2-5.5 13.8-.9 2-2 4-3.4 5.7-2.2 2.8-6.8 1.8-8.3-1.6-3-7.1-5.9-14.2-8.8-21.3-.6-1.4-1.1-3-2.1-3.9-3.4-3.1-2.9-6.9-2.2-10.7.2-.9 1.2-1.9 2-2.4 4.1-2.5 9.8.2 11 4.8 1 3.8 2.6 7.5 3.9 11.2.5.1.9.2 1.3.2z"/><path d="m309.4 517.8c2.5-4.1 4.6-7.5 6.8-10.9.6-.9 1.1-2.2 1.9-2.6 2.2-1 5.7-2.9 6.5-2.1 1.8 1.6 2.8 4.7 2.9 7.2s-1 5.4-2.2 7.7c-4 7.2-8.2 14.3-10.1 22.5-.6 2.5-2.6 4-5.5 4.1s-3.9-1.6-4.8-3.7c-3.4-7.7-6.7-15.4-10.2-23.1-.5-1.2-1.5-2.3-2.2-3.4-2.4-3.6-.7-9.8 3.3-11.4 2.1-.9 3.4 0 5.4 1.3 5.3 3.1 4.9 9.1 8.2 14.4z"/></svg>