<?xml version="1.0" encoding="utf-8"?>
<!-- Generator: Adobe Illustrator 22.0.1, SVG Export Plug-In . SVG Version: 6.00 Build 0)  -->
<svg version="1.1" id="Layer_1" xmlns="http://www.w3.org/2000/svg" xmlns:xlink="http://www.w3.org/1999/xlink" x="0px" y="0px"
	 viewBox="0 0 768 1024" style="enable-background:new 0 0 768 1024;" xml:space="preserve">
<g>
	<path d="M267.1,755.9c-12.7,3.3-25,6.5-37.4,9.5c-3.8,0.9-7.9,1.2-11.8,1.4c-8.2,0.3-16.4,0.3-24.5,0.6c-4.4,0.2-8.8,1.2-13.3,1.4
		c-5.1,0.2-10.3,0.1-15.5,0.1c-0.3-0.3-0.5-0.6-0.8-0.9c2-2,3.6-4.8,6-6c9.9-4.8,19.9-9.6,30.3-13.3c14.9-5.4,29-12.5,43-19.6
		c7.8-4,15.9-7.6,23.4-12.2c17.8-11,34.1-23.7,46.9-40.7c7.1-9.4,5.6-18.1,1.5-27.5c-1-2.4-2.5-4.5-3.9-7.1
		c-2.6,2.3-5.2,4.3-7.4,6.5c-8.3,8.4-17.8,6.9-27.5,3.3c-8.8-3.2-11.3-10.4-12.4-18.9c-1.7-13.5,3.2-25.4,8.3-37.3
		c3-7,6.3-14.2,11-20c4.8-6,12-9.3,20.2-6.8c18.1,5.3,28.6,18.1,33.3,35.7c4.3,16,1.7,31.8-2.5,47.4c-1.4,5.1-2,10.4-3.3,15.5
		c-0.9,3.4-2.4,6.6-3.6,9.9c-0.2,0.4-0.7,0.9-0.6,1.3c0.3,5-3.1,8.5-4.9,12.6c-3.6,8.3-7.3,16.7-12,24.3
		c-4.7,7.6-10.4,14.7-16.3,21.4c-3.9,4.4-9.1,7.6-13.3,11.7c-1.8,1.8-3.6,4.5-3.9,7c-0.8,7.2-1.5,14.6-1,21.8
		c0.7,10.2,3.4,20.4,3.7,30.6c0.4,13.3,7,24.4,11.4,36.3c2,5.3,5.9,10,9.1,14.8c2.1,3.2,4,6.5,6.5,9.3c3.9,4.3,8.1,8.2,13,12.9
		c0.3-4.5,0.6-8.4,1-12.2c0.4-3.7,0.3-7.5,1.4-11c2.9-9,5.4-18.3,9.9-26.4c4.8-8.7,11.2-16.7,18-24c3-3.2,8.5-4.8,13.1-5.5
		c6.4-1,9.8,4.1,13,8.8c4,5.8,7.4,12.5,12.6,16.8c10.6,8.8,22.9,14.5,37.4,12c5.6-0.9,11.1-2.1,16.7-3.1c2.1-0.4,2.5-1.4,2.2-3.4
		c-2.1-18-9.3-33.9-19.8-48.4c-13.1-18.1-26.1-36.2-39.3-54.2c-7.8-10.6-16.5-20.6-23.8-31.5c-9.4-14-16.5-29.3-17.3-46.6
		c-0.3-6.2,0.4-12.7,1.9-18.8c3.2-13.5,6.7-27,11-40.1c4-12.3,9.4-24.3,13.9-36.4c2.5-6.7,4.7-13.5,6.9-20.3
		c2.6-7.9,4.9-15.9,7.6-23.7c3.1-8.9,6.3-17.7,9.7-26.5c1.1-3,2.5-6,4.3-8.6c3.8-5.3,4.7-11.6,7-17.4c2.9-7,6.1-13.9,9.3-20.8
		c0.4-0.8,1.6-1.1,2.4-1.7c0.1,1,0.4,2,0.2,2.9c-2.4,8.5-3.4,17.1-2.9,26c0.5,8.7,1.6,17.4,5.2,25.3c5.3,11.7,11.2,23.2,17.4,34.5
		c4.3,7.9,9.5,15.4,14.5,22.9c6.1,9.3,12.8,18.3,18.6,27.8c6.1,10,12.1,20.2,17.2,30.8c3.9,8.2,5.1,17.2,5.5,26.4
		c1.1,20.6-3.4,40.2-8.8,59.8c-4.1,15.1-8.8,30-12.4,45.2c-4.3,18.6-7.7,37.5-11.5,56.2c-2,9.7-4.1,19.4-6.3,29.1
		c-0.3,1.5-1.4,2.8-2,4.2c-0.4,0.9-0.7,1.9-1.1,2.9c0.3,0.3,0.6,0.6,0.9,0.9c3.8-2.4,7.6-4.7,11.3-7.2
		c16.9-11.8,30.4-26.9,42.4-43.5c4.3-6,8.4-12.3,11.9-18.9c2-3.7,3-8.2,3.8-12.4c4-20.7,7.5-41.6,5.8-62.7
		c-1.1-14.2-3.7-28.2-7.3-42.1c-7.7-29.8-19.3-57.9-32.7-85.5c-1.9-4-3.1-8.3-5.1-12.3c-1.9-3.8-4.7-7.2-6.6-11
		c-9.2-17.7-18.6-35.4-27.4-53.4c-5.8-11.9-10.2-24.5-15.9-36.5c-5.6-11.9-9.6-24.3-12.7-36.8c-3-12-4.9-24.3-6-36.6
		c-1.1-12.9,0.5-25.6,7.2-37.4c4.8-8.4,7.6-18,12.2-26.6c2.4-4.4,2.3-8.1,1.3-12.5c-4.1-18.9-5-38-2-57.1c1.3-8.3,4.2-16.5,7.2-24.4
		c3.7-9.7,8.3-19.1,12.3-28.7c0.6-1.5,0.2-3.6-0.1-5.4c-1.4-9.6-3.6-19.1-4.2-28.7c-0.9-15,0.2-30,5.2-44.5c2.5-7.2,3.6-15,8.2-21.4
		c3.8-5.2,7.6-10.4,11.4-15.6c4.2-5.8,8.5-11.6,12.8-17.3c0.7-0.9,1.7-1.6,2.8-2.6c2.4,2.7,1.2,5.2,0.6,7.6c-2,7.6-4.6,15-6,22.7
		c-1.8,10.2-2,20.4-0.3,30.8c1.6,9.4,2.3,19,3.6,28.4c3.2,22.1,10.8,42.8,19.3,63.2c9.6,23.1,19.8,45.8,29.6,68.8
		c10.7,25.1,21.3,50.3,31.9,75.5c5.7,13.5,11.9,26.8,16.9,40.5c4.1,11.4,7.3,23.2,10,35c3.2,13.9,2.9,28-0.9,41.7
		c-3.1,10.9-6.6,21.9-12.9,31.6c-1.9,2.9-4.1,5.7-5.4,8.9c-1,2.3-1.7,5.4-1.1,7.7c3.1,10.3,6.8,20.5,10.2,30.7
		c3.4,10.2,7.5,20.3,10,30.8c2.8,11.7,4.3,23.7,6.1,35.5c1.1,7.2,2,14.5,2.6,21.8c0.7,8.6,1.4,17.3,1.2,26
		c-0.2,10.7-0.8,21.5-2.3,32.1c-2,15.2-4.6,30.3-7.6,45.3c-2.6,12.9-5.7,25.6-9.5,38.2c-3.2,10.5-7.4,20.7-11.5,30.9
		c-3.4,8.5-7.1,16.8-11,25.1c-3.4,7.3-7.2,14.4-10.5,21.7c-4.9,10.7-11.8,20.3-18.3,30.1c-7.5,11.2-16.8,20.7-25.9,30.6
		c-3.8,4.2-7.3,8.7-11.1,12.7c-1.8,1.9-4.3,3.2-6.5,4.7c-11.7,8.3-22.8,17.6-35.3,24.6c-12.1,6.7-25,12.7-39.5,13.4
		c-5.9,0.3-11.6,2.5-17.5,3.3c-8.2,1.2-16.4,0.8-24.7-0.6c-20.1-3.5-37.3-12.8-52.8-25.5c-10-8.2-18.3-18.1-25.8-28.8
		C278.8,894.5,269,870,264,843.5c-3.1-16.3-3.5-32.8-1.5-49.3c1.4-12.2,3-24.4,4.5-36.6C267.1,757,267.1,756.4,267.1,755.9z
		 M441.7,326c-0.1,3.4-0.7,6.6-0.2,9.5c3,15.3,5.4,30.9,9.7,45.8c5.4,19,13.1,37.2,22,54.9c10.1,20.1,20.5,40,30.4,60.2
		c8,16.3,15.9,32.6,23.1,49.2c3.9,9.1,6.1,18.9,9.5,28.2c7.8,21.3,13,43.3,17,65.5c2.6,14.3,4.2,28.7,2.9,43.3
		c-1.3,14.8-2.5,29.7-4.4,44.4c-2.2,16.6-6.7,32.6-12.8,48.1c-4.2,10.8-9.5,21-16.1,30.5c-7.3,10.4-14,21.1-21.8,31.1
		c-10.4,13.4-21.8,26.1-35,37c-8.3,6.8-16.4,13.9-26.7,17.4c-6.1,2.1-12.7,3.2-19.2,4c-16.9,2.1-30.9-4.6-43-15.6
		c-5-4.5-8.5-10.6-12.8-15.9c-7.4-9-10.5-10.3-19.7-4.1c-9,6.2-15.5,14.9-19.3,25.3c-0.5,1.3,0.3,3.9,1.3,4.8
		c8.9,7.4,18.5,13.6,29.8,16.4c12.8,3.2,25.8,5.7,39.1,3.3c12.8-2.3,25.8-4.1,38.4-7.5c12.7-3.5,24-10.4,34.8-18.1
		c13.9-9.9,27.3-20.2,39.2-32.5c15.2-15.7,26.3-34.2,36.6-53.2c4.5-8.2,8.7-16.7,11.7-25.6c4.3-12.7,7.3-25.8,10.8-38.7
		c3.5-12.8,6.7-25.8,7-39.1c0.1-7.9-0.5-15.9-1.3-23.7c-1.4-14.1-1.9-28.4-5-42.1c-4.6-20.2-9.9-40.4-17-59.8
		c-8.8-24.1-19.1-47.7-29.8-71.1c-11.5-25.2-24.2-49.8-36.6-74.7c-12.3-24.7-24-49.6-34-75.3C447.6,340.8,444.7,333.6,441.7,326z
		 M458.7,206.4c-0.3,0.5-0.5,0.7-0.5,0.9c-0.1,0.7-0.1,1.5-0.2,2.2c-1.8,20.4,1.1,40.4,7.2,59.6c7.3,23,15.3,46,25.3,68
		c14.5,31.9,31.2,62.9,46.8,94.4c7.9,15.9,15.4,32,23,48c1.9,4.1,3.7,8.2,5.6,12.3c0.2-11.5-0.5-22.6-3.3-33.6
		c-6.2-24-16.5-46.6-26.1-69.3c-10-23.7-20.1-47.3-30.3-70.9c-6.1-14.2-12.3-28.2-18.4-42.4c-5.6-13.2-10.8-26.7-16.7-39.8
		C466.9,226.2,465.9,215.2,458.7,206.4z M394.8,516.4c-0.3,0-0.6-0.1-0.9-0.1c-1.3,2.7-2.6,5.5-4,8.2c-3.3,6.3-4.5,12.5-2.8,19.7
		c3.1,12.7,10.2,23.4,16.9,34.2c5.9,9.5,12.6,18.5,18.7,27.8c7.2,11,14.6,21.9,21.1,33.3c7.1,12.3,13.5,25.1,19.9,37.9
		c2.6,5.3,4.4,11,6.5,16.6c4.1-9.2,2.7-18.9,0.9-27.8c-1.9-9.1-6.2-18.2-11.1-26.2c-13.1-21.5-27.5-42.3-40.7-63.7
		c-9.3-15.1-18.7-30.3-22.4-48C396.1,524.3,395.5,520.3,394.8,516.4z M454.5,760.3c0.1-1.6,0.2-2.1,0.2-2.6
		c-0.1-0.9-0.2-1.7-0.3-2.6c-0.9-11-4.7-21.2-9.8-30.7c-7.2-13.4-15-26.6-23.2-39.5c-8.8-13.9-18.3-27.2-27.3-40.9
		c-6.7-10.2-13.4-20.3-19.2-31c-3.7-6.9-5.7-14.6-8.8-22.7c-1,4.8-2.5,9.2-2.6,13.6c-0.3,12.8,4.2,24.5,10.4,35.3
		c5.7,9.7,12.4,18.8,19.1,27.9c11.4,15.5,23.3,30.6,34.5,46.3c6.7,9.4,12.3,19.5,18.1,29.5C448.8,748.2,451.3,753.9,454.5,760.3z"/>
	<path d="M384.7,453.8c-3.5-1.2-6.4-1.2-9.3-3.7c-10.4-9.2-21.4-17.6-32.4-26.1c-6.9-5.4-7.2-5.1-1.4-11.6
		c6.6-7.4,12.4-15.4,18.6-23.1c3.1-3.7,6.5-7.2,9.6-10.9c1.8-2.2,3.6-1.7,5.4-0.2c11.6,9.3,23.2,18.6,34.8,28
		c0.3,0.2,0.6,0.5,0.9,0.7c5.2,3.8,5.9,7,2,12.3c-3.7,4.9-8,9.4-11.8,14.2c-4.7,6-9.3,12.2-13.9,18.3
		C386.4,452.5,385.4,453.2,384.7,453.8z"/>
	<path d="M403.6,153.2c5.4,5,10.6,9.6,15.6,14.4c6.7,6.4,13.4,12.8,20.1,19.3c3.7,3.6,3.3,8.8,0.3,12.4c-8,9.6-16.2,19-24.4,28.4
		c-3.7,4.3-9,4.4-13.2,0.4c-7.2-7-14.4-14-21.6-20.9c-2.7-2.6-5.4-5.1-8.4-7.3c-2.4-1.8-2.9-3.7-1.3-6c1.8-2.8,3.9-5.4,6-8.1
		c6.2-7.8,12.4-15.6,18.7-23.4C397.6,159.3,400.5,156.5,403.6,153.2z"/>
	<path d="M395.3,345.1c-3.7-2.8-8.1-2.2-11.6-5.7c-8.3-8.3-17.5-15.6-26.3-23.4c-1.4-1.2-2.8-2.5-3.8-4c-0.5-0.8-0.5-2.5,0.1-3.3
		c2.5-3.6,5-7,7.8-10.3c7.3-8.6,14.7-17.1,22.2-25.5c4.3-4.8,4.3-4.7,8.8-0.7c10.2,9,20.5,18,30.7,27c1.9,1.7,2.5,3.4,2.6,6.5
		c0.1,5-3.1,7-5.4,9.9c-7,9-14.1,17.9-21.3,26.7C398.2,343.5,396.7,344.1,395.3,345.1z"/>
	<path d="M333.6,742.6c1.5-2.8,3.2-5.5,4.4-8.4c1.6-3.8,4.2-6.4,8.1-7.6c0.8-0.3,2.7,0.1,2.8,0.6c1.1,3.5,3.6,6.9,1.6,10.8
		c-1.6,2.9-3.4,5.7-4.8,8.8c-2,4.5-3.5,9.2-5.5,13.8c-0.9,2-2,4-3.4,5.7c-2.2,2.8-6.8,1.8-8.3-1.6c-3-7.1-5.9-14.2-8.8-21.3
		c-0.6-1.4-1.1-3-2.1-3.9c-3.4-3.1-2.9-6.9-2.2-10.7c0.2-0.9,1.2-1.9,2-2.4c4.1-2.5,9.8,0.2,11,4.8c1,3.8,2.6,7.5,3.9,11.2
		C332.8,742.5,333.2,742.6,333.6,742.6z"/>
	<path d="M309.4,517.8c2.5-4.1,4.6-7.5,6.8-10.9c0.6-0.9,1.1-2.2,1.9-2.6c2.2-1,5.7-2.9,6.5-2.1c1.8,1.6,2.8,4.7,2.9,7.2
		c0.1,2.5-1,5.4-2.2,7.7c-4,7.2-8.2,14.3-10.1,22.5c-0.6,2.5-2.6,4-5.5,4.1c-2.9,0.1-3.9-1.6-4.8-3.7c-3.4-7.7-6.7-15.4-10.2-23.1
		c-0.5-1.2-1.5-2.3-2.2-3.4c-2.4-3.6-0.7-9.8,3.3-11.4c2.1-0.9,3.4,0,5.4,1.3C306.5,506.5,306.1,512.5,309.4,517.8z"/>
</g>
</svg>
